<?xml version="1.0" standalone="no"?>
<!DOCTYPE svg PUBLIC "-//W3C//DTD SVG 20010904//EN"
 "http://www.w3.org/TR/2001/REC-SVG-20010904/DTD/svg10.dtd">
<svg version="1.0" xmlns="http://www.w3.org/2000/svg"
 width="577.000000pt" height="577.000000pt" viewBox="0 0 577.000000 577.000000"
 preserveAspectRatio="xMidYMid meet">
<metadata>
Created by potrace 1.14, written by Peter Selinger 2001-2017
</metadata>
<g transform="translate(0.000000,577.000000) scale(0.100000,-0.100000)"
fill="#000000" stroke="none">
<path d="M3043 4678 c-25 -33 -25 -38 1 -27 14 7 27 18 30 25 7 17 -18 18 -31
2z"/>
<path d="M3115 4624 l-40 -25 35 6 c38 6 54 17 49 34 -3 6 -20 0 -44 -15z"/>
<path d="M2735 4528 c-73 -9 -215 -52 -285 -88 -59 -30 -118 -86 -125 -121 -8
-38 3 -89 20 -89 7 0 15 -6 18 -13 14 -38 215 -56 347 -32 141 26 262 79 323
143 31 32 38 46 39 81 0 46 -9 62 -56 90 -49 30 -165 42 -281 29z m112 -142
c5 -5 -113 -44 -162 -53 -87 -15 -105 -15 -105 1 0 10 15 19 43 26 23 6 49 13
57 17 8 3 31 7 50 10 19 3 36 6 38 8 5 4 73 -3 79 -9z"/>
<path d="M2250 4500 c14 -11 34 -20 45 -20 17 0 15 4 -10 20 -40 26 -69 26
-35 0z"/>
<path d="M2164 4416 c22 -18 87 -23 70 -6 -6 6 -28 13 -50 16 -37 5 -38 4 -20
-10z"/>
<path d="M2537 4093 c-4 -3 -7 -27 -7 -53 0 -34 7 -58 25 -84 14 -20 25 -41
25 -45 0 -5 -24 -20 -54 -35 -120 -59 -176 -156 -139 -245 14 -36 11 -67 -6
-56 -5 3 -12 1 -15 -4 -3 -5 -21 -12 -40 -15 -37 -7 -119 -48 -142 -70 -8 -8
-24 -23 -36 -33 -36 -30 -73 -86 -85 -133 -7 -26 -3 -92 7 -132 16 -56 6 -75
-53 -103 -121 -57 -238 -184 -293 -317 -23 -56 -32 -68 -55 -73 -34 -8 -70 2
-68 18 1 7 -1 20 -6 30 -4 11 -3 23 4 30 28 28 6 91 -43 125 -45 31 -83 36
-112 17 -28 -18 -30 -41 -8 -73 13 -19 13 -22 0 -22 -8 0 -21 -3 -29 -6 -11
-4 -17 4 -22 28 -9 42 -32 78 -50 78 -7 0 -26 -11 -41 -24 l-28 -23 -18 23
c-12 15 -25 21 -36 17 -25 -10 -62 -54 -62 -74 0 -11 -4 -19 -10 -19 -5 0 -10
4 -10 9 0 8 -59 41 -74 41 -16 0 -44 -45 -41 -68 8 -69 18 -89 66 -123 32 -22
95 -34 104 -19 4 6 17 4 35 -5 38 -20 37 -20 66 -1 19 13 29 14 44 6 12 -6 35
-9 52 -6 31 5 75 -15 91 -41 17 -28 98 -65 148 -68 28 -2 52 -5 54 -7 2 -2 6
-26 9 -53 3 -28 10 -68 14 -91 10 -49 76 -184 106 -217 11 -14 34 -41 50 -61
16 -20 35 -36 43 -36 7 0 13 -4 13 -9 0 -26 288 -132 397 -146 12 -2 34 -6 50
-9 15 -3 42 -8 58 -11 17 -3 41 -7 55 -10 14 -3 39 -8 55 -11 35 -6 84 -49 83
-73 -1 -32 11 -123 16 -128 3 -3 -8 -21 -24 -39 -32 -36 -31 -53 5 -108 15
-22 15 -30 1 -84 -21 -79 -20 -114 4 -165 21 -44 68 -81 105 -82 47 -2 96 59
89 110 -6 47 -28 100 -45 111 -9 5 -7 11 6 20 34 25 54 65 45 90 -6 16 -5 32
5 50 18 35 4 75 -35 98 -17 9 -30 25 -31 34 0 9 -2 43 -5 74 -7 67 2 74 83 72
27 -1 71 -2 99 -3 62 -1 67 -8 53 -92 -10 -60 -14 -67 -60 -99 -15 -10 -17
-58 -4 -83 7 -15 9 -30 4 -38 -16 -25 -10 -47 21 -77 l29 -30 -24 -48 c-34
-68 -33 -118 4 -155 35 -35 70 -37 116 -9 64 39 84 131 52 237 -15 50 -15 52
9 84 31 42 30 60 -2 98 -14 17 -23 34 -21 38 3 5 8 39 12 77 7 82 18 106 48
105 33 -2 224 17 267 26 14 3 59 12 100 19 41 8 84 17 95 20 11 3 47 12 80 21
70 18 73 20 187 74 185 88 308 272 313 469 1 45 5 85 7 88 3 2 24 6 47 9 47 5
94 28 131 65 38 37 62 48 96 43 18 -3 41 0 52 6 15 8 27 7 48 -4 23 -12 32
-12 59 -1 21 9 37 10 48 4 24 -13 89 7 114 34 27 30 53 82 53 107 0 11 -11 32
-24 47 -21 26 -25 27 -54 15 -17 -7 -33 -19 -36 -27 -9 -23 -23 -16 -35 16
-20 59 -69 80 -91 40 -12 -23 -30 -27 -30 -6 0 13 -23 26 -58 32 -17 3 -44
-41 -44 -71 0 -31 -12 -39 -37 -26 -17 10 -18 15 -8 42 11 27 10 33 -10 49
-44 36 -124 7 -160 -57 -14 -27 -15 -38 -6 -65 18 -50 7 -86 -28 -93 -46 -10
-61 1 -113 81 -73 114 -172 207 -275 260 -31 16 -59 33 -62 37 -3 5 -10 8 -15
8 -17 -2 -79 22 -95 36 -10 9 -18 37 -22 81 -8 100 -58 196 -141 274 -35 32
-116 68 -190 84 -65 14 -103 31 -92 42 8 8 -20 55 -51 84 -15 14 -46 34 -67
45 -34 15 -40 23 -43 53 -7 81 -15 99 -55 139 -55 55 -110 72 -288 86 -101 8
-119 12 -145 29 -26 17 -38 20 -48 9z"/>
</g>
</svg>
